#!OML:ASF H:\Male1\Project 1\Capture day 1\Session 1\Male1.ASF
:FULLY-SPECIFIED
:DEGREES
764
root 22.1517 15.5183 0.604181 166.806 -81.6169 -167.643
lowerback 4.4071 0.862436 0.160004
upperback 5.06522 1.03257 -2.65158
thorax 2.79963 0.500194 -2.84578
lowerneck -9.1341 -5.21246 2.00397
upperneck 9.47017 -7.78032 3.85538
head 4.41441 -3.56153 0.355372
rclavicle -9.93923e-015 -2.94201e-014
rhumerus -29.6683 32.4194 -106.457
rradius 115.966
rwrist -4.26856
rhand -19.5187 28.3307
rfingers 7.12502
rthumb 6.80446 -1.53998
lclavicle -9.93923e-015 -2.94201e-014
lhumerus -29.8734 -18.6819 90.6766
lradius 128.44
lwrist 9.72368
lhand -4.22129 -14.0946
lfingers 7.12502
lthumb 21.5414 14.7274
rfemur -2.8596 22.1263 21.524
rtibia 17.183
rfoot -30.4931 -35.2731
rtoes -11.2737
lfemur -1.83505 -21.5266 -16.3095
ltibia 20.7887
lfoot -28.278 31.5427
ltoes 6.97573
765
root 22.147 15.5202 0.601909 166.512 -81.6217 -167.373
lowerback 4.39919 0.846678 0.145024
upperback 5.0405 1.01212 -2.59785
thorax 2.77569 0.489051 -2.78119
lowerneck -9.11249 -5.18116 1.97127
upperneck 9.57615 -7.73155 3.79238
head 4.44141 -3.53969 0.343488
rclavicle 1.98785e-015 0
rhumerus -29.6299 32.1209 -106.198
rradius 116.009
rwrist -4.56357
rhand -19.8425 28.7055
rfingers 7.12502
rthumb 6.49186 -1.17502
lclavicle 1.98785e-015 0
lhumerus -30.1508 -18.2652 90.5171
lradius 128.579
lwrist 9.7853
lhand -4.56225 -14.2964
lfingers 7.12502
lthumb 21.214 14.5628
rfemur -2.77186 22.1222 21.5897
rtibia 17.1102
rfoot -30.4746 -35.3285
rtoes -11.4268
lfemur -1.8388 -21.3254 -16.2742
ltibia 20.8728
lfoot -27.9557 31.5938
ltoes 6.03917
766
root 22.1425 15.5187 0.600167 166.035 -81.6237 -166.926
lowerback 4.37528 0.829913 0.139392
upperback 5.03066 0.990601 -2.52111
thorax 2.77587 0.477485 -2.69782
lowerneck -9.01479 -5.13247 1.98308
upperneck 9.56465 -7.64648 3.65859
head 4.41467 -3.50637 0.309815
rclavicle 4.57205e-015 2.8625e-014
rhumerus -29.6275 31.8322 -105.946
rradius 116.11
rwrist -4.5255
rhand -20.2983 29.2598
rfingers 7.12502
rthumb 6.0518 -0.633814
lclavicle 4.57205e-015 2.8625e-014
lhumerus -30.4369 -17.8421 90.4034
lradius 128.767
lwrist 10.0137
lhand -4.56948 -14.338
lfingers 7.12502
lthumb 21.207 14.522
rfemur -2.67679 22.1337 21.6921
rtibia 17.0533
rfoot -30.444 -35.4012
rtoes -11.5251
lfemur -1.83798 -21.1985 -16.2023
ltibia 20.9492
lfoot -27.995 31.4739
ltoes 6.23482
767
root 22.1375 15.5188 0.598365 166.536 -81.6512 -167.504
lowerback 4.39245 0.830363 -0.0219434
upperback 5.03602 0.986444 -2.47807
thorax 2.76744 0.46919 -2.56266
lowerneck -8.93362 -5.08291 1.95896
upperneck 9.15124 -7.53904 3.47117
head 4.7358 -3.47713 0.308007
rclavicle -5.96354e-015 2.14687e-014
rhumerus -29.6197 31.5185 -105.682
rradius 116.132
rwrist -4.63503
rhand -20.3048 29.6595
rfingers 7.12502
rthumb 6.04554 -0.234279
lclavicle -5.96354e-015 2.14687e-014
lhumerus -30.6633 -17.4638 90.3309
lradius 128.92
lwrist 10.185
lhand -4.41798 -14.386
lfingers 7.12502
lthumb 21.3525 14.4576
rfemur -2.55424 22.1187 21.6406
rtibia 17.0387
rfoot -30.4445 -35.3531
rtoes -11.4065
lfemur -1.80278 -21.1 -16.312
ltibia 21.0008
lfoot -27.8157 31.5107
ltoes 6.31867
768
root 22.1322 15.5196 0.596884 167.685 -81.7097 -168.743
lowerback 4.42865 0.840991 -0.275583
upperback 5.0455 0.992684 -2.46051
thorax 2.75197 0.46306 -2.4025
lowerneck -8.84114 -5.03805 1.93087
upperneck 9.0691 -7.45213 3.35681
head 4.68119 -3.44386 0.284494
rclavicle 1.98785e-014 -3.97569e-015
rhumerus -29.5608 31.2285 -105.4
rradius 116.178
rwrist -4.78222
rhand -20.195 29.6284
rfingers 7.12502
rthumb 6.15157 -0.262283
lclavicle 1.98785e-014 -3.97569e-015
lhumerus -30.8237 -17.154 90.2734
lradius 128.993
lwrist 9.98362
lhand -4.33975 -14.5016
lfingers 7.12502
lthumb 21.4277 14.3335
rfemur -2.42654 21.991 21.4694
rtibia 17.0363
rfoot -30.3797 -35.2217
rtoes -11.4836
lfemur -1.79037 -21.1683 -16.5279
ltibia 21.0484
lfoot -27.7476 31.6319
ltoes 6.6512
769
root 22.1292 15.5174 0.595229 168.02 -81.7358 -169.133
lowerback 4.44408 0.843417 -0.417773
upperback 5.06873 0.99119 -2.39803
thorax 2.76331 0.456373 -2.25816
lowerneck -8.83981 -5.00922 1.8655
upperneck 9.02843 -7.38927 3.2606
head 4.66346 -3.42027 0.268499
rclavicle 5.96354e-016 -5.40694e-014
rhumerus -29.4367 31.0245 -105.106
rradius 116.226
rwrist -4.77147
rhand -20.1341 29.4182
rfingers 7.12502
rthumb 6.21037 -0.470731
lclavicle 5.96354e-016 -5.40694e-014
lhumerus -30.8715 -16.8401 90.2047
lradius 129.012
lwrist 9.49088
lhand -4.46739 -14.6759
lfingers 7.12502
lthumb 21.3051 14.1731
rfemur -2.34772 21.8653 21.4237
rtibia 17.0345
rfoot -30.3506 -35.0663
rtoes -11.3661
lfemur -1.80028 -21.1076 -16.576
ltibia 21.0978
lfoot -27.652 31.6222
ltoes 6.15402
770
root 22.1284 15.5159 0.593211 166.969 -81.7147 -168.086
lowerback 4.43877 0.835212 -0.354554
upperback 5.09613 0.981497 -2.27725
thorax 2.79297 0.452037 -2.16851
lowerneck -8.87208 -4.98849 1.83113
upperneck 8.99467 -7.33967 3.13768
head 4.65261 -3.40281 0.236126
rclavicle 5.56597e-015 1.74931e-014
rhumerus -29.2024 30.8484 -104.789
rradius 116.252
rwrist -4.75075
rhand -20.1458 29.3092
rfingers 7.12502
rthumb 6.19903 -0.580053
lclavicle 5.56597e-015 1.74931e-014
lhumerus -30.8147 -16.542 90.1602
lradius 128.996
lwrist 9.10298
lhand -4.69016 -14.9272
lfingers 7.12502
lthumb 21.0911 13.9457
rfemur -2.33176 21.873 21.6069
rtibia 17.0386
rfoot -30.4749 -35.0076
rtoes -11.0201
lfemur -1.85062 -20.8282 -16.3557
ltibia 21.1547
lfoot -27.3357 31.4527
ltoes 5.31968
771
root 22.1291 15.5165 0.591583 166.027 -81.7459 -167.125
lowerback 4.43471 0.825881 -0.294844
upperback 5.10397 0.970597 -2.17693
thorax 2.80196 0.447441 -2.09809
lowerneck -8.8362 -4.98457 1.79583
upperneck 8.94274 -7.31454 3.05146
head 4.62326 -3.39711 0.216941
rclavicle 8.74653e-015 -3.57812e-014
rhumerus -28.9206 30.6093 -104.471
rradius 116.262
rwrist -4.88318
rhand -20.1899 29.3037
rfingers 7.12502
rthumb 6.15646 -0.586839
lclavicle 8.74653e-015 -3.57812e-014
lhumerus -30.7423 -16.3251 90.1559
lradius 128.963
lwrist 9.01494
lhand -4.77807 -15.0698
lfingers 7.12502
lthumb 21.0066 13.8126
rfemur -2.33903 21.8787 21.7559
rtibia 17.0345
rfoot -30.5246 -35.0578
rtoes -10.7607
lfemur -1.96475 -20.627 -16.1454
ltibia 21.2299
lfoot -27.1277 31.1941
ltoes 5.33107
772
root 22.1295 15.516 0.590726 165.93 -81.861 -167.035
lowerback 4.43683 0.803807 -0.360267
upperback 5.11225 0.939374 -2.13054
thorax 2.80612 0.428978 -2.01288
lowerneck -8.74467 -4.99967 1.75402
upperneck 8.89811 -7.31919 3.01186
head 4.58807 -3.40477 0.214102
rclavicle -6.95746e-015 7.95139e-016
rhumerus -28.7316 30.4011 -104.226
rradius 116.307
rwrist -5.11788
rhand -20.2574 29.3556
rfingers 7.12502
rthumb 6.09132 -0.53686
lclavicle -6.95746e-015 7.95139e-016
lhumerus -30.6674 -16.1003 90.1569
lradius 128.934
lwrist 9.10614
lhand -4.82589 -14.9139
lfingers 7.12502
lthumb 20.9607 13.9735
rfemur -2.30825 21.7723 21.7479
rtibia 17.0234
rfoot -30.4412 -35.1378
rtoes -10.9472
lfemur -2.04173 -20.5733 -16.1322
ltibia 21.308
lfoot -27.0704 31.0234
ltoes 5.40791
773
root 22.1274 15.5135 0.589885 165.956 -81.9783 -167.119
lowerback 4.46676 0.77532 -0.430194
upperback 5.12901 0.898514 -2.11081
thorax 2.80385 0.405577 -1.95284
lowerneck -8.66135 -5.03069 1.69219
upperneck 8.90537 -7.35405 3.03763
head 4.57796 -3.42377 0.233562
rclavicle -2.38542e-015 3.4191e-014
rhumerus -28.6112 30.2631 -104.058
rradius 116.379
rwrist -5.28845
rhand -20.5306 29.3856
rfingers 7.12502
rthumb 5.82759 -0.514251
lclavicle -2.38542e-015 3.4191e-014
lhumerus -30.7422 -15.756 90.219
lradius 128.929
lwrist 9.16737
lhand -4.79883 -14.9301
lfingers 7.12502
lthumb 20.9867 13.9545
rfemur -2.21976 21.6154 21.7282
rtibia 17.0242
rfoot -30.3807 -35.1648
rtoes -11.4122
lfemur -2.01941 -20.5949 -16.1957
ltibia 21.3731
lfoot -27.0744 30.9578
ltoes 5.32317
